<?xml version="1.0" standalone="no"?>
<!DOCTYPE svg PUBLIC "-//W3C//DTD SVG 20010904//EN"
 "http://www.w3.org/TR/2001/REC-SVG-20010904/DTD/svg10.dtd">
<svg version="1.0" xmlns="http://www.w3.org/2000/svg"
 width="178.000000pt" height="121.000000pt" viewBox="0 0 178.000000 121.000000"
 preserveAspectRatio="xMidYMid meet">

<g transform="translate(0.000000,121.000000) scale(0.100000,-0.100000)"
fill="#000000" stroke="none">
<path d="M795 1183 c-100 -5 -215 -23 -312 -48 -237 -62 -391 -189 -355 -293
5 -17 5 -38 0 -55 -7 -18 -6 -38 1 -58 7 -20 7 -38 0 -56 -6 -15 -8 -37 -5
-48 4 -15 -4 -28 -30 -49 -102 -81 -96 -213 15 -325 93 -94 241 -158 456 -197
150 -28 535 -25 696 4 133 24 260 68 330 113 103 66 169 170 169 263 -1 46
-33 110 -74 142 -26 21 -34 34 -30 49 3 11 1 32 -4 45 -6 16 -5 36 1 54 6 18
6 39 0 60 -6 20 -6 41 -1 57 48 130 -198 285 -522 328 -90 12 -252 19 -335 14z
m349 -69 c255 -40 456 -145 456 -239 0 -71 -84 -134 -253 -189 l-102 -34 -3
-145 c-2 -113 -6 -148 -17 -157 -18 -15 -45 3 -45 30 0 22 -22 41 -36 32 -6
-4 -16 -21 -23 -39 -14 -35 -39 -48 -76 -39 -30 8 -38 27 -44 111 -7 77 -25
93 -49 43 -19 -41 -45 -52 -71 -30 -17 14 -21 31 -23 87 l-3 70 -125 12 c-309
31 -550 140 -550 248 0 89 190 193 429 235 139 24 394 26 535 4z m-836 -435
c99 -48 236 -84 387 -102 l110 -12 0 -30 c0 -29 -1 -29 -50 -27 -150 8 -371
65 -465 119 -53 31 -110 88 -110 110 0 14 3 13 23 -1 12 -9 59 -35 105 -57z
m1277 25 c-24 -38 -126 -99 -209 -127 l-74 -25 -7 25 c-8 32 -4 35 70 57 66
20 167 68 205 98 30 24 39 8 15 -28z m-1275 -144 c83 -42 256 -85 392 -99 93
-9 110 -14 132 -36 14 -14 30 -25 36 -25 5 0 10 -4 10 -8 0 -11 -111 -4 -244
14 -208 29 -382 101 -439 184 -28 41 -21 54 16 27 17 -14 61 -39 97 -57z
m1290 60 c0 -45 -105 -119 -229 -161 -73 -26 -83 -25 -79 8 3 24 12 30 93 58
91 31 173 74 195 100 16 20 20 19 20 -5z m-1470 -123 c0 -52 85 -130 200 -181
294 -132 851 -127 1139 9 99 47 145 86 174 147 l24 51 16 -24 c51 -79 17 -182
-88 -261 -179 -136 -652 -195 -1037 -128 -131 22 -201 45 -298 96 -127 67
-208 184 -179 261 20 53 49 71 49 30z m197 -63 c127 -56 308 -91 511 -98 113
-4 125 -6 152 -30 17 -13 30 -27 30 -30 0 -12 -254 -5 -360 9 -205 29 -385 97
-450 172 -47 53 -39 70 15 33 25 -17 71 -43 102 -56z m1273 71 c0 -28 -69 -91
-132 -122 -74 -36 -175 -69 -184 -61 -3 4 0 19 8 33 10 21 29 32 83 49 79 25
158 64 195 95 30 25 30 25 30 6z m-430 -205 c0 -5 -9 -10 -21 -10 -11 0 -17 5
-14 10 3 6 13 10 21 10 8 0 14 -4 14 -10z"/>
<path d="M663 1065 c-12 -8 -24 -27 -27 -43 -6 -27 -8 -27 -82 -27 -71 0 -77
-2 -100 -28 -21 -24 -24 -38 -24 -103 0 -66 3 -78 25 -99 21 -22 33 -25 100
-25 67 0 79 3 100 25 14 13 25 33 25 45 0 18 6 20 74 20 41 0 82 3 91 6 60 23
60 215 0 238 -33 12 -160 6 -182 -9z m167 -54 c5 -11 10 -36 10 -56 0 -63 -13
-75 -80 -75 -67 0 -80 12 -80 75 0 63 13 75 80 75 48 0 61 -4 70 -19z m-202
-134 c2 -35 -2 -64 -9 -73 -14 -17 -110 -19 -127 -2 -13 13 -17 120 -5 132 4
4 37 6 73 4 l65 -3 3 -58z"/>
<path d="M1467 907 c-8 -19 -29 -44 -47 -57 -67 -47 -228 -86 -385 -93 -54 -2
-60 -4 -63 -24 -3 -22 -1 -23 81 -23 251 0 485 104 465 207 -6 33 -36 27 -51
-10z"/>
</g>
</svg>
